<svg width="82" height="128" viewBox="0 0 82 128" fill="none" xmlns="http://www.w3.org/2000/svg">
<path d="M41 59.0334L4 63L41 51V59.0334Z" fill="#727272"/>
<path d="M41 41.6643L3 60L41 33V41.6643Z" fill="#727272"/>
<path d="M41 23.818L1 58L41 15V23.818Z" fill="#727272"/>
<path d="M41 6.20753L0 57L41 0V6.20753Z" fill="#727272"/>
<path d="M41 69.6361L4 66L41 77V69.6361Z" fill="white"/>
<path d="M41 87.0148L3 68L41 96V87.0148Z" fill="white"/>
<path d="M41 104.182L1 70L41 113V104.182Z" fill="white"/>
<path d="M41 121.792L0 71L41 128V121.792Z" fill="white"/>
<path d="M41 59.0334L78 63L41 51V59.0334Z" fill="#FCFCFC"/>
<path d="M41 41.6643L79 60L41 33V41.6643Z" fill="#FCFCFC"/>
<path d="M41 23.818L81 58L41 15V23.818Z" fill="#FCFCFC"/>
<path d="M41 6.20753L82 57L41 0V6.20753Z" fill="#FCFCFC"/>
<path d="M41 69.6361L78 66L41 77V69.6361Z" fill="#727272"/>
<path d="M41 87.0148L79 68L41 96V87.0148Z" fill="#727272"/>
<path d="M41 104.182L81 70L41 113V104.182Z" fill="#727272"/>
<path d="M41 121.792L82 71L41 128V121.792Z" fill="#727272"/>
</svg>
